<?xml version="1.0" encoding="iso-8859-1"?>
<!-- Uploaded to: SVG Repo, www.svgrepo.com, Generator: SVG Repo Mixer Tools -->
<svg fill="#000000" height="800px" width="800px" version="1.1" id="Layer_1" xmlns="http://www.w3.org/2000/svg" xmlns:xlink="http://www.w3.org/1999/xlink" 
	 viewBox="0 0 511.999 511.999" xml:space="preserve">
<g>
	<g>
		<path d="M332.6,332.201c-4.513-1.853-9.668,0.302-11.519,4.814c-9.874,24.051-29.272,43.655-53.225,53.785
			c-4.489,1.9-6.591,7.078-4.69,11.568c1.424,3.368,4.693,5.392,8.133,5.392c1.148,0,2.313-0.225,3.436-0.699
			c3.605-1.525,7.121-3.238,10.539-5.115l0.044,92.344l-107.653,0.053l-0.042-90.101c5.538,2.741,11.288,5.044,17.191,6.861
			c0.864,0.266,1.74,0.392,2.599,0.392c3.773,0,7.267-2.439,8.434-6.234c1.434-4.66-1.183-9.599-5.842-11.033
			c-19.85-6.106-37.685-18.673-50.221-35.382c-12.955-17.267-19.801-37.841-19.801-59.496v-30.273c0-0.007,0.001-0.015,0.001-0.022
			v-14.229c0-4.875-3.951-8.827-8.827-8.827s-8.827,3.952-8.827,8.827v10.979c0,0.007-0.001,0.015-0.001,0.022v33.523
			c0,25.505,8.068,49.742,23.333,70.089c6.871,9.159,15.111,17.244,24.302,24.015l0.052,109.724c0.001,2.341,0.932,4.585,2.588,6.24
			c1.655,1.654,3.899,2.582,6.239,2.582c0,0,0.004,0,0.005,0l125.308-0.061c4.875-0.002,8.825-3.956,8.823-8.831l-0.054-113.091
			c15.05-12.275,27.065-28.21,34.492-46.297C339.264,339.21,337.109,334.052,332.6,332.201z"/>
	</g>
</g>
<g>
	<g>
		<path d="M387.526,174.323c-8.617-9.48-33.039-19.554-37.848-21.477c-2.952-1.183-6.309-0.684-8.793,1.303l-20.338,16.27
			l-0.125-26.767l18.801-20.81c8.442,4.289,23.302,9.5,37.345,2.816c8.402-3.998,11.425-10.045,12.481-14.414
			c2.826-11.686-5.495-23.03-6.453-24.284c-0.88-1.155-2.034-2.074-3.356-2.675l-48.509-22.108
			c-4.448-7.462-12.169-11.758-13.259-12.335c-1.033-0.547-2.166-0.884-3.331-0.99l-50.738-4.612
			c-3.597-0.324-7.025,1.568-8.662,4.782l-14.059,27.577V36.502c0-9.75-3.798-18.917-10.692-25.812C223.096,3.797,213.93,0,204.18,0
			c-20.127,0-36.502,16.375-36.502,36.502V140.94c-5.506-3.333-11.957-5.255-18.849-5.255c-20.127,0-36.502,16.375-36.502,36.502
			v23.785c0,4.875,3.951,8.827,8.827,8.827s8.827-3.952,8.827-8.827v-23.785c0-10.393,8.455-18.848,18.848-18.848
			c10.393,0,18.849,8.455,18.849,18.848V213.7v13.829c-1.319,3.979,0.348,8.453,4.162,10.524
			c19.957,10.841,32.354,31.669,32.354,54.355c0,4.875,3.951,8.827,8.827,8.827s8.827-3.952,8.827-8.827
			c0-27.191-13.854-52.297-36.515-66.862v-11.845v-41.513V36.502c0-10.393,8.455-18.848,18.848-18.849
			c10.393,0,18.849,8.455,18.849,18.849v136.455c0,4.875,3.951,8.827,8.827,8.827s8.827-3.952,8.827-8.827v-57.489l27.074-53.106
			l42.78,3.889c2.27,1.537,5.222,4.225,5.641,6.358c0.069,0.35,0.279,1.412-1.543,3.598c-7.847,9.416-25.933,6.25-26.083,6.22
			c-4.435-0.883-8.81,1.715-10.156,6.024l-11.531,36.9c-0.267,0.852-0.403,1.74-0.403,2.633v48.432c0,4.875,3.951,8.827,8.827,8.827
			s8.827-3.952,8.827-8.827v-47.085l8.984-28.747c9.463,0.368,25.14-1.126,35.096-13.074c1.55-1.86,2.703-3.692,3.558-5.465
			l37.876,17.263c1.357,2.349,2.745,5.778,2.257,7.789c-0.082,0.346-0.338,1.399-2.907,2.622
			c-11.068,5.269-26.169-5.18-26.291-5.267c-3.647-2.656-8.715-2.134-11.745,1.219l-25.918,28.686
			c-1.475,1.632-2.287,3.758-2.277,5.959l0.227,48.443c0.016,3.386,1.967,6.464,5.022,7.923c3.055,1.459,6.676,1.043,9.32-1.072
			l30.507-24.406c10.12,4.389,22.898,10.885,26.636,14.996c4.502,4.953,8.326,17.717,7.538,22.261
			c-7.351,0.144-21.961-6.345-30.401-11.232c-2.123-1.232-4.665-1.525-7.009-0.81c-2.348,0.717-4.291,2.379-5.363,4.585
			l-13.069,26.907c-0.707,1.454-1,3.074-0.849,4.683l3.164,33.645v33.109c0,4.875,3.951,8.827,8.827,8.827
			c4.876,0,8.827-3.952,8.827-8.827v-33.523c0-0.275-0.013-0.552-0.039-0.826l-2.969-31.597l7.994-16.46
			c9.16,4.476,23.383,10.23,33.986,8.986c6.173-0.726,10.98-4.529,13.189-10.434C402.962,203.001,394.905,182.439,387.526,174.323z"
			/>
	</g>
</g>
</svg>